<mxfile host="app.diagrams.net" modified="2023-01-10T01:50:00.328Z" agent="5.0 (Windows NT 10.0; Win64; x64) AppleWebKit/537.36 (KHTML, like Gecko) Chrome/108.0.0.0 Safari/537.36" etag="7mxFhjZCMndtrZ-MMzo6" version="20.8.3" type="github">
  <diagram id="t8jQeqgDCNto9nULy3Xl" name="Page-1">
    <mxGraphModel dx="1434" dy="764" grid="1" gridSize="10" guides="1" tooltips="1" connect="1" arrows="1" fold="1" page="1" pageScale="1" pageWidth="850" pageHeight="1100" math="0" shadow="0">
      <root>
        <mxCell id="0" />
        <mxCell id="1" parent="0" />
        <mxCell id="R8BtDW_22pKhw8ZMR2om-2" value="" style="endArrow=none;dashed=1;html=1;rounded=0;" edge="1" parent="1">
          <mxGeometry width="50" height="50" relative="1" as="geometry">
            <mxPoint y="160" as="sourcePoint" />
            <mxPoint x="840" y="160" as="targetPoint" />
          </mxGeometry>
        </mxCell>
        <mxCell id="R8BtDW_22pKhw8ZMR2om-3" value="Sentiment Analysis&lt;br&gt;Training" style="text;html=1;strokeColor=none;fillColor=none;align=center;verticalAlign=middle;whiteSpace=wrap;rounded=0;" vertex="1" parent="1">
          <mxGeometry x="10" y="50" width="60" height="30" as="geometry" />
        </mxCell>
        <mxCell id="R8BtDW_22pKhw8ZMR2om-13" value="p%" style="edgeStyle=orthogonalEdgeStyle;rounded=0;orthogonalLoop=1;jettySize=auto;html=1;entryX=0;entryY=0.5;entryDx=0;entryDy=0;entryPerimeter=0;" edge="1" parent="1" source="R8BtDW_22pKhw8ZMR2om-6" target="R8BtDW_22pKhw8ZMR2om-10">
          <mxGeometry relative="1" as="geometry" />
        </mxCell>
        <mxCell id="R8BtDW_22pKhw8ZMR2om-14" value="(100-p)%" style="edgeStyle=orthogonalEdgeStyle;rounded=0;orthogonalLoop=1;jettySize=auto;html=1;exitX=0;exitY=0;exitDx=70;exitDy=50;exitPerimeter=0;entryX=0;entryY=0.5;entryDx=0;entryDy=0;entryPerimeter=0;" edge="1" parent="1" source="R8BtDW_22pKhw8ZMR2om-6" target="R8BtDW_22pKhw8ZMR2om-12">
          <mxGeometry relative="1" as="geometry" />
        </mxCell>
        <mxCell id="R8BtDW_22pKhw8ZMR2om-6" value="Sentiment Data" style="shape=note;whiteSpace=wrap;html=1;backgroundOutline=1;darkOpacity=0.05;size=20;" vertex="1" parent="1">
          <mxGeometry x="130" y="40" width="70" height="80" as="geometry" />
        </mxCell>
        <mxCell id="R8BtDW_22pKhw8ZMR2om-7" style="edgeStyle=orthogonalEdgeStyle;rounded=0;orthogonalLoop=1;jettySize=auto;html=1;exitX=0.5;exitY=1;exitDx=0;exitDy=0;exitPerimeter=0;" edge="1" parent="1" source="R8BtDW_22pKhw8ZMR2om-6" target="R8BtDW_22pKhw8ZMR2om-6">
          <mxGeometry relative="1" as="geometry" />
        </mxCell>
        <mxCell id="R8BtDW_22pKhw8ZMR2om-8" value="Model&lt;br&gt;??" style="whiteSpace=wrap;html=1;aspect=fixed;" vertex="1" parent="1">
          <mxGeometry x="590" y="12.5" width="65" height="65" as="geometry" />
        </mxCell>
        <mxCell id="R8BtDW_22pKhw8ZMR2om-23" value="" style="edgeStyle=orthogonalEdgeStyle;rounded=0;orthogonalLoop=1;jettySize=auto;html=1;entryX=0;entryY=0.5;entryDx=0;entryDy=0;" edge="1" parent="1" source="R8BtDW_22pKhw8ZMR2om-10">
          <mxGeometry relative="1" as="geometry">
            <mxPoint x="355" y="45" as="targetPoint" />
          </mxGeometry>
        </mxCell>
        <mxCell id="R8BtDW_22pKhw8ZMR2om-10" value="Train" style="shape=note;whiteSpace=wrap;html=1;backgroundOutline=1;darkOpacity=0.05;size=16;" vertex="1" parent="1">
          <mxGeometry x="260" y="20" width="60" height="50" as="geometry" />
        </mxCell>
        <mxCell id="R8BtDW_22pKhw8ZMR2om-11" style="edgeStyle=orthogonalEdgeStyle;rounded=0;orthogonalLoop=1;jettySize=auto;html=1;exitX=0.5;exitY=1;exitDx=0;exitDy=0;exitPerimeter=0;" edge="1" parent="1" source="R8BtDW_22pKhw8ZMR2om-10" target="R8BtDW_22pKhw8ZMR2om-10">
          <mxGeometry relative="1" as="geometry" />
        </mxCell>
        <mxCell id="R8BtDW_22pKhw8ZMR2om-12" value="Test" style="shape=note;whiteSpace=wrap;html=1;backgroundOutline=1;darkOpacity=0.05;size=16;" vertex="1" parent="1">
          <mxGeometry x="260" y="90" width="60" height="50" as="geometry" />
        </mxCell>
        <mxCell id="R8BtDW_22pKhw8ZMR2om-18" value="Sentiment Analysis&lt;br&gt;Model" style="text;html=1;strokeColor=none;fillColor=none;align=center;verticalAlign=middle;whiteSpace=wrap;rounded=0;" vertex="1" parent="1">
          <mxGeometry x="10" y="180" width="60" height="30" as="geometry" />
        </mxCell>
        <mxCell id="R8BtDW_22pKhw8ZMR2om-24" value="Find Entities" style="text;html=1;strokeColor=none;fillColor=none;align=center;verticalAlign=middle;whiteSpace=wrap;rounded=0;" vertex="1" parent="1">
          <mxGeometry y="330" width="95" height="30" as="geometry" />
        </mxCell>
        <mxCell id="R8BtDW_22pKhw8ZMR2om-29" value="" style="edgeStyle=orthogonalEdgeStyle;rounded=0;orthogonalLoop=1;jettySize=auto;html=1;" edge="1" parent="1" source="R8BtDW_22pKhw8ZMR2om-27" target="R8BtDW_22pKhw8ZMR2om-28">
          <mxGeometry relative="1" as="geometry" />
        </mxCell>
        <mxCell id="R8BtDW_22pKhw8ZMR2om-27" value="Incoming Data" style="shape=note;whiteSpace=wrap;html=1;backgroundOutline=1;darkOpacity=0.05;size=24;" vertex="1" parent="1">
          <mxGeometry x="90" y="200" width="60" height="90" as="geometry" />
        </mxCell>
        <mxCell id="R8BtDW_22pKhw8ZMR2om-31" value="" style="edgeStyle=orthogonalEdgeStyle;rounded=0;orthogonalLoop=1;jettySize=auto;html=1;" edge="1" parent="1" source="R8BtDW_22pKhw8ZMR2om-28" target="R8BtDW_22pKhw8ZMR2om-30">
          <mxGeometry relative="1" as="geometry" />
        </mxCell>
        <mxCell id="R8BtDW_22pKhw8ZMR2om-28" value="Get Entities" style="rounded=0;whiteSpace=wrap;html=1;" vertex="1" parent="1">
          <mxGeometry x="180" y="215" width="70" height="60" as="geometry" />
        </mxCell>
        <mxCell id="R8BtDW_22pKhw8ZMR2om-30" value="Get Sentiment" style="rounded=0;whiteSpace=wrap;html=1;" vertex="1" parent="1">
          <mxGeometry x="300" y="215" width="60" height="60" as="geometry" />
        </mxCell>
        <mxCell id="R8BtDW_22pKhw8ZMR2om-32" value="Foreach headline/entity" style="text;html=1;strokeColor=none;fillColor=none;align=center;verticalAlign=middle;whiteSpace=wrap;rounded=0;" vertex="1" parent="1">
          <mxGeometry x="250" y="170" width="60" height="30" as="geometry" />
        </mxCell>
        <mxCell id="R8BtDW_22pKhw8ZMR2om-35" value="" style="edgeStyle=orthogonalEdgeStyle;rounded=0;orthogonalLoop=1;jettySize=auto;html=1;" edge="1" parent="1" source="R8BtDW_22pKhw8ZMR2om-33" target="R8BtDW_22pKhw8ZMR2om-34">
          <mxGeometry relative="1" as="geometry" />
        </mxCell>
        <mxCell id="R8BtDW_22pKhw8ZMR2om-33" value="Incoming Data" style="shape=note;whiteSpace=wrap;html=1;backgroundOutline=1;darkOpacity=0.05;size=24;" vertex="1" parent="1">
          <mxGeometry x="35" y="370" width="60" height="90" as="geometry" />
        </mxCell>
        <mxCell id="R8BtDW_22pKhw8ZMR2om-40" value="" style="edgeStyle=orthogonalEdgeStyle;rounded=0;orthogonalLoop=1;jettySize=auto;html=1;" edge="1" parent="1" source="R8BtDW_22pKhw8ZMR2om-34" target="R8BtDW_22pKhw8ZMR2om-38">
          <mxGeometry relative="1" as="geometry" />
        </mxCell>
        <mxCell id="R8BtDW_22pKhw8ZMR2om-34" value="spaCy" style="rounded=0;whiteSpace=wrap;html=1;" vertex="1" parent="1">
          <mxGeometry x="130" y="385" width="70" height="60" as="geometry" />
        </mxCell>
        <mxCell id="R8BtDW_22pKhw8ZMR2om-42" value="" style="edgeStyle=orthogonalEdgeStyle;rounded=0;orthogonalLoop=1;jettySize=auto;html=1;" edge="1" parent="1" source="R8BtDW_22pKhw8ZMR2om-38" target="R8BtDW_22pKhw8ZMR2om-41">
          <mxGeometry relative="1" as="geometry" />
        </mxCell>
        <mxCell id="R8BtDW_22pKhw8ZMR2om-44" style="edgeStyle=orthogonalEdgeStyle;rounded=0;orthogonalLoop=1;jettySize=auto;html=1;exitX=1;exitY=0.25;exitDx=0;exitDy=0;entryX=0;entryY=0.25;entryDx=0;entryDy=0;" edge="1" parent="1" source="R8BtDW_22pKhw8ZMR2om-38" target="R8BtDW_22pKhw8ZMR2om-41">
          <mxGeometry relative="1" as="geometry" />
        </mxCell>
        <mxCell id="R8BtDW_22pKhw8ZMR2om-45" style="edgeStyle=orthogonalEdgeStyle;rounded=0;orthogonalLoop=1;jettySize=auto;html=1;exitX=1;exitY=0.75;exitDx=0;exitDy=0;entryX=0;entryY=0.75;entryDx=0;entryDy=0;" edge="1" parent="1" source="R8BtDW_22pKhw8ZMR2om-38" target="R8BtDW_22pKhw8ZMR2om-41">
          <mxGeometry relative="1" as="geometry" />
        </mxCell>
        <mxCell id="R8BtDW_22pKhw8ZMR2om-38" value="Tokenize" style="rounded=0;whiteSpace=wrap;html=1;" vertex="1" parent="1">
          <mxGeometry x="230" y="385" width="70" height="60" as="geometry" />
        </mxCell>
        <mxCell id="R8BtDW_22pKhw8ZMR2om-41" value="is nsubj?" style="rounded=0;whiteSpace=wrap;html=1;" vertex="1" parent="1">
          <mxGeometry x="330" y="385" width="70" height="60" as="geometry" />
        </mxCell>
        <mxCell id="R8BtDW_22pKhw8ZMR2om-43" value="DOES THIS WORK????" style="text;html=1;strokeColor=none;fillColor=none;align=center;verticalAlign=middle;whiteSpace=wrap;rounded=0;" vertex="1" parent="1">
          <mxGeometry x="440" y="385" width="95" height="30" as="geometry" />
        </mxCell>
        <mxCell id="R8BtDW_22pKhw8ZMR2om-46" value="Get Sentiment" style="text;html=1;strokeColor=none;fillColor=none;align=center;verticalAlign=middle;whiteSpace=wrap;rounded=0;" vertex="1" parent="1">
          <mxGeometry x="10" y="490" width="95" height="30" as="geometry" />
        </mxCell>
        <mxCell id="R8BtDW_22pKhw8ZMR2om-52" value="" style="edgeStyle=orthogonalEdgeStyle;rounded=0;orthogonalLoop=1;jettySize=auto;html=1;" edge="1" parent="1" source="R8BtDW_22pKhw8ZMR2om-48" target="R8BtDW_22pKhw8ZMR2om-49">
          <mxGeometry relative="1" as="geometry" />
        </mxCell>
        <mxCell id="R8BtDW_22pKhw8ZMR2om-48" value="Incoming Data" style="shape=note;whiteSpace=wrap;html=1;backgroundOutline=1;darkOpacity=0.05;size=24;" vertex="1" parent="1">
          <mxGeometry x="27.5" y="530" width="60" height="90" as="geometry" />
        </mxCell>
        <mxCell id="R8BtDW_22pKhw8ZMR2om-53" value="" style="edgeStyle=orthogonalEdgeStyle;rounded=0;orthogonalLoop=1;jettySize=auto;html=1;" edge="1" parent="1" source="R8BtDW_22pKhw8ZMR2om-49" target="R8BtDW_22pKhw8ZMR2om-51">
          <mxGeometry relative="1" as="geometry" />
        </mxCell>
        <mxCell id="R8BtDW_22pKhw8ZMR2om-49" value="Prepro-cessing" style="rounded=0;whiteSpace=wrap;html=1;" vertex="1" parent="1">
          <mxGeometry x="120" y="545" width="70" height="60" as="geometry" />
        </mxCell>
        <mxCell id="R8BtDW_22pKhw8ZMR2om-55" value="" style="edgeStyle=orthogonalEdgeStyle;rounded=0;orthogonalLoop=1;jettySize=auto;html=1;" edge="1" parent="1" source="R8BtDW_22pKhw8ZMR2om-51" target="R8BtDW_22pKhw8ZMR2om-54">
          <mxGeometry relative="1" as="geometry" />
        </mxCell>
        <mxCell id="R8BtDW_22pKhw8ZMR2om-51" value="RNN" style="rounded=0;whiteSpace=wrap;html=1;" vertex="1" parent="1">
          <mxGeometry x="240" y="545" width="70" height="60" as="geometry" />
        </mxCell>
        <mxCell id="R8BtDW_22pKhw8ZMR2om-54" value="One-hot encoding" style="rounded=0;whiteSpace=wrap;html=1;" vertex="1" parent="1">
          <mxGeometry x="340" y="545" width="70" height="60" as="geometry" />
        </mxCell>
      </root>
    </mxGraphModel>
  </diagram>
</mxfile>
